<?xml version="1.0" encoding="UTF-8" standalone="no"?>
<!-- Created with Inkscape (http://www.inkscape.org/) -->

<svg
   xmlns:dc="http://purl.org/dc/elements/1.1/"
   xmlns:cc="http://creativecommons.org/ns#"
   xmlns:rdf="http://www.w3.org/1999/02/22-rdf-syntax-ns#"
   xmlns:svg="http://www.w3.org/2000/svg"
   xmlns="http://www.w3.org/2000/svg"
   xmlns:sodipodi="http://sodipodi.sourceforge.net/DTD/sodipodi-0.dtd"
   xmlns:inkscape="http://www.inkscape.org/namespaces/inkscape"
   width="67.569771mm"
   height="35.675747mm"
   viewBox="0 0 74.326745 39.24332"
   version="1.1"
   id="svg850"
   inkscape:version="0.92.4 (5da689c313, 2019-01-14)"
   sodipodi:docname="logo-1-fff.svg">
  <defs
     id="defs844" />
  <sodipodi:namedview
     id="base"
     pagecolor="#ffffff"
     bordercolor="#666666"
     borderopacity="1.0"
     inkscape:pageopacity="0.0"
     inkscape:pageshadow="2"
     inkscape:zoom="2.8"
     inkscape:cx="72.082989"
     inkscape:cy="43.708059"
     inkscape:document-units="mm"
     inkscape:current-layer="g9397"
     showgrid="false"
     scale-x="1.1"
     fit-margin-top="0"
     fit-margin-left="0"
     fit-margin-right="0"
     fit-margin-bottom="0"
     inkscape:window-width="2560"
     inkscape:window-height="1387"
     inkscape:window-x="-8"
     inkscape:window-y="-8"
     inkscape:window-maximized="1" />
  <metadata
     id="metadata847">
    <rdf:RDF>
      <cc:Work
         rdf:about="">
        <dc:format>image/svg+xml</dc:format>
        <dc:type
           rdf:resource="http://purl.org/dc/dcmitype/StillImage" />
        <dc:title></dc:title>
      </cc:Work>
    </rdf:RDF>
  </metadata>
  <g
     inkscape:label="Layer 1"
     inkscape:groupmode="layer"
     id="layer1"
     transform="translate(-46.356611,-43.953042)">
    <g
       id="g9397"
       transform="matrix(0.27281386,0,0,0.27281386,172.24655,-26.180315)"
       style="fill:#5b2105;fill-opacity:1;stroke-width:0.96983099">
      <path
         inkscape:connector-curvature="0"
         id="path4751"
         style="fill:#ffffff;fill-opacity:1;fill-rule:evenodd;stroke-width:0.96983099"
         d="m -460.9903,400.8214 c -0.3678,0.2203 -0.5147,0.0735 -0.4413,-0.4413 0.5525,-2.0226 6.1882,-10.3403 7.6114,-12.5203 10.9761,-16.8041 23.5796,-33.5186 35.6314,-49.5855 17.4922,-23.5174 36.1601,-46.9523 55.5421,-68.945 3.2724,-3.7152 7.1337,-7.98 10.8103,-11.3069 0.7715,-0.698 1.2687,-1.0114 1.489,-0.9379 1.1631,0.5791 -2.2471,13.4568 -2.6471,15.1129 -8.8976,36.2308 -15.5921,57.3332 -7.0449,94.4956 0.1469,0.5147 0.0902,0.7525 -0.1658,0.7169 -0.2566,-0.0364 -0.9148,0.1629 -1.2386,-0.2161 -24.4161,-28.5915 -0.1993,-80.6625 4.9188,-98.0848 -0.5882,1.1029 -1.2141,2.1331 -1.8751,3.0884 -16.369,23.6566 -33.2563,46.1103 -51.0744,68.7248 -11.3559,14.266 -23.0293,28.2641 -34.8586,42.1391 -4.7488,5.065 -11.4971,14.3185 -16.6572,17.7601 z m 162.721,-37.5204 c -8.68,12.5875 -15.4564,20.0275 -33.0325,29.6545 -7.1848,3.9354 -15.9326,7.64 -29.7727,7.8939 -0.5511,0.0105 -1.1952,-0.3 -1.4127,-0.5161 -0.1322,-0.1315 12.5364,-2.7234 18.3804,-5.742 28.0704,-14.4954 32.4031,-22.4585 48.7945,-45.6297 -3.4725,3.4213 -21.0675,14.7394 -24.6882,12.023 -0.8092,-0.6623 -1.2134,-1.5078 -1.2134,-2.5373 0,-1.0295 0.1098,-2.0226 0.3308,-2.9787 0.4413,-1.6177 1.0295,-3.1801 1.7652,-4.6879 0.6952,-1.4254 0.6323,-1.2079 1.5247,-2.5996 -1.7786,1.6554 -2.2101,2.1415 -4.7111,4.2522 -6.5238,5.5062 -12.6105,10.4257 -14.9989,8.9171 -4.0914,-2.5842 2.5171,-12.8826 4.988,-16.6718 -4.3362,3.7584 -7.1148,6.8287 -11.6091,10.5068 -2.1086,1.7253 -8.8094,6.8008 -11.7761,6.1965 -3.4333,-0.6987 -3.6732,-5.0845 -3.178,-7.0813 3.6591,-14.7632 16.4033,-32.0407 29.6279,-35.1229 9.6221,-2.2429 7.6939,4.7075 7.2924,4.5754 -0.0349,-1.2205 -1.3526,-2.657 -4.9621,-1.466 -11.0663,3.6515 -24.819,26.2185 -23.1216,29.4139 1.6974,3.1955 13.2904,-6.0034 19.5261,-10.6047 2.4625,-2.0946 7.2771,-11.8237 12.4874,-17.2069 2.3199,-2.3968 8.0331,-4.8201 6.8008,0.384 -1.14,4.8173 -26.4835,36.877 -11.2824,25.6862 2.2408,-1.6499 5.5398,-4.7369 7.91,-7.0519 1.3135,-1.561 7.9604,-11.7405 12.4749,-18.1902 2.3891,-3.4123 7.14,-4.0256 7.0239,-1.6345 -0.2049,4.2124 -10.3558,16.3859 -12.1853,19.119 -2.0492,3.0626 -8.6549,11.9881 0.1188,9.8054 5.279,-1.3135 9.9844,-3.8466 16.6418,-10.6432 2.6542,-5.33 6.7064,-13.9177 10.0068,-17.3482 3.4696,-3.6067 6.7987,-3.4458 6.4063,-0.4126 -0.4126,5.3593 -18.2203,31.0882 -24.1566,39.6976 z m 50.3121,-23.6391 c 2.0891,-0.5973 3.7564,-1.2239 5.7356,-1.9303 0.5148,-0.1839 0.7358,-0.4231 0.6623,-0.7169 0,-0.2944 -0.6378,-0.6224 -1.2616,-0.6588 -1.1582,-0.0671 -1.7233,-0.004 -2.9311,-0.004 1.9652,-2.6185 3.8584,-5.5216 5.6265,-8.273 2.0282,-3.1549 6.5595,-11.1495 -0.7721,-4.6334 -4.4516,3.9564 -8.9976,8.6766 -12.7959,13.2379 -5.0684,0.298 -10.1816,1.0246 -15.2235,1.6541 1.5729,-2.2276 14.2527,-19.2009 8.8255,-16.8775 -1.3701,0.456 -6.1916,5.309 -7.391,6.5084 -3.8047,3.8047 -7.0855,7.5554 -10.5593,11.6594 -2.1842,0.2357 -6.784,1.0687 -8.9514,1.9863 -0.9553,0.4042 -1.3239,0.8644 -1.1036,1.3791 0.3028,0.605 5.6307,0.9582 6.8448,0.9582 -1.1036,1.4708 -2.4835,3.0276 -3.4395,4.425 -1.5841,2.4143 -7.8814,12.3665 -1.9352,13.026 4.6775,0.584 10.8201,-12.84 13.7386,-17.2181 3.8872,-0.27 10.1893,-1.2288 14.6717,-2.0961 -1.6918,2.1332 -2.4605,2.936 -4.4929,7.9695 -5.4446,13.4848 8.0569,16.0501 6.5351,12.4252 -1.5051,-3.5857 6.0098,-19.6302 7.0036,-21.0563 0.3672,-0.5882 0.7721,-1.1777 1.2134,-1.7652 z m 45.3675,-23.1964 c -3.2808,6.4133 -11.3125,16.6642 -15.5822,22.6921 0.1259,0.2504 0.4105,1.0771 0.5357,1.3275 6.6847,-5.2909 14.3296,-10.9761 21.6438,-15.3878 0.9574,-0.5777 5.537,-3.2696 6.5623,-3.1438 1.7792,0.2196 -2.3073,5.8056 -7.0449,9.1186 -4.7376,3.313 -20.3366,11.9265 -20.3366,11.9545 1.7862,8.9297 5.2237,16.7376 10.8579,26.9192 0.1461,0.3686 0.2203,0.8092 0.2203,1.324 0,0.5147 -0.2945,0.735 -0.8826,0.6616 -0.5148,-0.0728 -0.9764,-0.2392 -1.3792,-0.4959 -4.7481,-3.0213 -13.5359,-19.6442 -14.8598,-24.6077 -3.6515,4.8704 -8.7423,12.2545 -13.0721,16.327 -1.3925,1.31 -3.0598,0.7707 -0.1168,-5.8426 2.2331,-4.3663 1.4743,-5.6286 4.1431,-9.8214 1.2512,-1.9856 3.1269,-4.7439 5.6265,-8.2737 -0.1252,-0.2497 -0.0944,-0.4106 -0.2203,-0.6616 -1.7645,1.3973 -3.8997,3.0164 -6.3986,4.8537 -3.7564,2.7618 -9.9312,8.0016 -13.4337,10.1487 -0.9589,0.5686 -2.0261,1.9772 -4.2544,2.5185 -0.6483,0.1573 -1.9016,-0.7526 -1.1106,-2.024 0.7903,-1.2708 2.9171,-3.8613 4.4586,-5.1279 1.9855,-1.6911 4.0823,-3.3095 6.2881,-4.8537 2.1331,-1.5442 4.339,-3.0157 6.6183,-4.4124 2.2799,-1.3967 4.5236,-2.5737 6.7294,-3.5298 l 0.2203,-0.1112 c 0.0734,0 0.1105,-0.0357 0.1105,-0.1098 -1.1036,-3.8976 -2.2058,-7.7582 -3.3095,-11.5825 -0.777,-2.5709 -3.5297,-10.7935 -3.5297,-13.0168 0,-6.7288 8.7171,7.1679 10.8103,13.2372 0.9176,2.659 1.7275,5.0747 2.3164,7.2805 2.6394,-3.5193 25.2483,-30.7707 18.3895,-15.3605 z" />
      <path
         inkscape:connector-curvature="0"
         id="path4753"
         style="fill:#ffffff;fill-opacity:1;fill-rule:evenodd;stroke-width:0.96983099"
         d="m -279.5041,287.316 c 0,0.948 -0.1594,1.8133 -0.4846,2.6013 -0.3251,0.7886 -0.8102,1.4664 -1.4605,2.0447 -0.6562,0.5789 -1.4829,1.0253 -2.4859,1.3505 -0.9977,0.3251 -2.2984,0.4851 -3.8908,0.4851 h -5.5119 c -0.3908,0 -0.7054,-0.1049 -0.9479,-0.3141 -0.2421,-0.2097 -0.3633,-0.5677 -0.3633,-1.075 v -18.171 c 0,-0.474 0.1212,-0.8156 0.3633,-1.0253 0.2425,-0.2092 0.5401,-0.314 0.8987,-0.314 h 11.8329 c 0.1049,0 0.1986,0.0275 0.2812,0.0826 0.0826,0.0498 0.1488,0.1435 0.2092,0.2812 0.0609,0.1324 0.1048,0.3029 0.1324,0.5179 0.0275,0.2098 0.0386,0.474 0.0386,0.7939 0,0.3029 -0.0111,0.5566 -0.0386,0.7716 -0.0276,0.2092 -0.0715,0.3802 -0.1324,0.5126 -0.0604,0.1377 -0.1266,0.2314 -0.2092,0.2918 -0.0826,0.0609 -0.171,0.0885 -0.2701,0.0885 h -8.8736 v 5.1914 h 3.4836 c 1.3446,0 2.4577,0.1271 3.3342,0.3861 0.8706,0.259 1.6147,0.6445 2.2158,1.1518 0.6058,0.5068 1.0692,1.1243 1.3943,1.8573 0.3252,0.7329 0.4846,1.5654 0.4846,2.4911 z m -4.2986,0.2701 c 0,-0.4576 -0.0773,-0.8764 -0.2261,-1.2456 -0.1541,-0.3749 -0.375,-0.689 -0.6668,-0.9532 -0.2923,-0.2648 -0.6725,-0.4687 -1.1301,-0.6064 -0.4628,-0.1377 -1.0745,-0.2097 -1.8461,-0.2097 h -2.7448 v 6.0187 h 2.7946 c 0.6942,0 1.2673,-0.0662 1.7137,-0.1928 0.4523,-0.1324 0.8267,-0.3251 1.1301,-0.5788 0.3029,-0.259 0.5402,-0.5788 0.7165,-0.9533 0.1706,-0.3807 0.259,-0.8049 0.259,-1.2789 z m 22.9054,-0.7165 c 0,0.9919 -0.1488,1.9017 -0.4464,2.7284 -0.2923,0.832 -0.7716,1.5543 -1.4331,2.1713 -0.6672,0.6228 -1.5267,1.1131 -2.596,1.477 -1.0639,0.3696 -2.5245,0.5513 -4.3759,0.5513 h -5.2195 c -0.1817,0 -0.3527,-0.0223 -0.5068,-0.0715 -0.1547,-0.0498 -0.2924,-0.1324 -0.4136,-0.2426 -0.1155,-0.116 -0.2092,-0.2537 -0.2813,-0.4189 -0.0714,-0.171 -0.1043,-0.3691 -0.1043,-0.6064 v -19.0145 c 0,-0.1044 0.0329,-0.1981 0.1043,-0.2807 0.0721,-0.0832 0.1875,-0.1488 0.3527,-0.2039 0.1658,-0.0498 0.3861,-0.0937 0.6615,-0.1213 0.2759,-0.0275 0.6064,-0.0386 1.0088,-0.0386 0.4131,0 0.7605,0.0111 1.0248,0.0386 0.2701,0.0276 0.4851,0.0715 0.645,0.1213 0.1599,0.0551 0.2754,0.1207 0.3363,0.2039 0.0662,0.0826 0.099,0.1763 0.099,0.2807 v 7.1265 h 2.9265 c 1.5877,0 2.8497,0.1377 3.7865,0.4131 0.9368,0.2759 1.7307,0.6779 2.3868,1.218 0.6503,0.5402 1.1571,1.2017 1.5098,1.9844 0.3586,0.788 0.5349,1.6809 0.5349,2.6839 z m -4.3653,0.3527 c 0,-0.5232 -0.0773,-0.9919 -0.2261,-1.3997 -0.1542,-0.4078 -0.3856,-0.7552 -0.6943,-1.0475 -0.3141,-0.2865 -0.7165,-0.5068 -1.2069,-0.6667 -0.4904,-0.1542 -1.2234,-0.2315 -2.1936,-0.2315 h -2.4583 v 6.614 h 2.541 c 1.0141,0 1.7693,-0.0996 2.2708,-0.2977 0.5015,-0.1986 0.8929,-0.4575 1.1735,-0.7716 0.2813,-0.3198 0.4851,-0.6672 0.6064,-1.0528 0.1271,-0.386 0.1875,-0.7716 0.1875,-1.1465 z m 33.9339,-4.0508 c 0,1.7418 -0.2039,3.2956 -0.6122,4.6625 -0.4131,1.3668 -1.0305,2.5192 -1.8514,3.456 -0.8267,0.9368 -1.8466,1.6475 -3.07,2.1384 -1.2238,0.4904 -2.6458,0.733 -4.2769,0.733 -1.4828,0 -2.7946,-0.1986 -3.9242,-0.5953 -1.1301,-0.4025 -2.0886,-0.9919 -2.866,-1.7857 -0.7828,-0.788 -1.3886,-1.7746 -1.8133,-2.954 -0.4242,-1.1794 -0.6779,-2.5409 -0.7658,-4.0894 h -3.2077 v 8.5151 c 0,0.1043 -0.0333,0.1981 -0.1048,0.2807 -0.0715,0.0831 -0.1875,0.1488 -0.3474,0.2044 -0.1594,0.0492 -0.3803,0.0932 -0.6445,0.1207 -0.2701,0.0281 -0.6175,0.0387 -1.0364,0.0387 -0.4078,0 -0.7494,-0.0106 -1.0253,-0.0387 -0.2754,-0.0275 -0.4957,-0.0715 -0.6556,-0.1207 -0.1599,-0.0556 -0.2754,-0.1213 -0.3474,-0.2044 -0.0715,-0.0826 -0.1043,-0.1764 -0.1043,-0.2807 v -19.8084 c 0,-0.1044 0.0328,-0.1981 0.1043,-0.2807 0.072,-0.0832 0.1875,-0.1488 0.3585,-0.2039 0.1652,-0.0498 0.3802,-0.0937 0.6503,-0.1213 0.2701,-0.0275 0.6117,-0.0386 1.0195,-0.0386 0.4189,0 0.7663,0.0111 1.0364,0.0386 0.2642,0.0276 0.4851,0.0657 0.6445,0.1213 0.1599,0.0551 0.2759,0.1207 0.3474,0.2039 0.0715,0.0768 0.1048,0.1705 0.1048,0.2807 v 7.8208 h 3.2903 c 0.1488,-1.3335 0.4576,-2.5409 0.9257,-3.6207 0.4687,-1.0804 1.1026,-2.0008 1.8906,-2.7507 0.7933,-0.7546 1.7471,-1.3393 2.8714,-1.7471 1.119,-0.4077 2.4032,-0.6116 3.858,-0.6116 1.521,0 2.8714,0.215 4.0566,0.645 1.1847,0.43 2.1824,1.0856 2.9979,1.9621 0.8156,0.8759 1.4331,1.9838 1.8573,3.3178 0.4247,1.3335 0.6397,2.9042 0.6397,4.7122 z m -4.4644,0.215 c 0,-1.0856 -0.0884,-2.0833 -0.2647,-2.9873 -0.1817,-0.904 -0.474,-1.6809 -0.876,-2.3312 -0.4024,-0.6562 -0.9426,-1.1577 -1.6094,-1.521 -0.6672,-0.3585 -1.4992,-0.5402 -2.4911,-0.5402 -1.0364,0 -1.8853,0.1981 -2.5574,0.5895 -0.6672,0.3913 -1.1963,0.9204 -1.5929,1.5765 -0.3914,0.6556 -0.6668,1.4161 -0.8214,2.2814 -0.1594,0.8712 -0.2367,1.7858 -0.2367,2.756 0,0.7107 0.0328,1.3885 0.099,2.0283 0.0609,0.6392 0.1763,1.2344 0.3363,1.7857 0.1652,0.5455 0.3749,1.047 0.6339,1.4987 0.259,0.4523 0.5788,0.8378 0.9697,1.1466 0.386,0.314 0.8436,0.5566 1.3726,0.7276 0.5291,0.1705 1.1407,0.259 1.8297,0.259 1.0031,0 1.8356,-0.1875 2.4965,-0.5677 0.6672,-0.375 1.1963,-0.8929 1.5988,-1.5485 0.3966,-0.6562 0.6831,-1.4278 0.8542,-2.3095 0.1705,-0.8818 0.2589,-1.8297 0.2589,-2.8439 z m 21.214,-8.7465 c 0,0.314 -0.0111,0.5783 -0.0387,0.8044 -0.0275,0.2203 -0.0662,0.3967 -0.1212,0.5291 -0.0551,0.1377 -0.1213,0.2372 -0.2039,0.2976 -0.0774,0.0662 -0.1711,0.0996 -0.2648,0.0996 h -5.2249 v 16.848 c 0,0.1049 -0.0328,0.2039 -0.1048,0.2924 -0.0715,0.0826 -0.187,0.1541 -0.3469,0.2091 -0.1599,0.0498 -0.3802,0.0938 -0.6562,0.1271 -0.2753,0.0329 -0.6169,0.0493 -1.0247,0.0493 -0.4078,0 -0.7499,-0.0164 -1.0253,-0.0493 -0.2753,-0.0333 -0.4962,-0.0773 -0.6561,-0.1271 -0.1594,-0.055 -0.2754,-0.1265 -0.3469,-0.2091 -0.0715,-0.0885 -0.1048,-0.1875 -0.1048,-0.2924 v -16.848 h -5.2249 c -0.1048,0 -0.1986,-0.0334 -0.2754,-0.0996 -0.072,-0.0604 -0.1377,-0.1599 -0.1933,-0.2976 -0.0492,-0.1324 -0.0932,-0.3088 -0.1207,-0.5291 -0.0281,-0.2261 -0.0387,-0.4904 -0.0387,-0.8044 0,-0.3199 0.0106,-0.5953 0.0387,-0.8214 0.0275,-0.2261 0.0715,-0.4078 0.1207,-0.5402 0.0556,-0.1377 0.1213,-0.2314 0.1933,-0.2918 0.0768,-0.0609 0.1706,-0.0884 0.2754,-0.0884 h 14.7155 c 0.0937,0 0.1821,0.0275 0.2648,0.0884 0.0826,0.0604 0.1488,0.1541 0.2039,0.2918 0.055,0.1324 0.0937,0.3141 0.1212,0.5402 0.0276,0.2261 0.0387,0.5015 0.0387,0.8214 z m 19.4827,18.6121 c 0,0.1043 -0.0328,0.1981 -0.1043,0.2807 -0.072,0.0831 -0.1875,0.1488 -0.3474,0.2044 -0.1599,0.0492 -0.3803,0.0932 -0.6562,0.1207 -0.2753,0.0281 -0.6169,0.0387 -1.0247,0.0387 -0.4078,0 -0.7499,-0.0106 -1.0253,-0.0387 -0.2754,-0.0275 -0.4904,-0.0715 -0.645,-0.1207 -0.1594,-0.0556 -0.2701,-0.1213 -0.3305,-0.2044 -0.0662,-0.0826 -0.099,-0.1764 -0.099,-0.2807 v -11.0174 c 0,-0.4189 0.005,-0.8325 0.0164,-1.2345 0.0112,-0.4083 0.0276,-0.7663 0.0493,-1.075 h -0.0329 c -0.0884,0.1488 -0.1874,0.3252 -0.3087,0.5238 -0.1213,0.1985 -0.2478,0.4077 -0.3802,0.628 -0.1377,0.2209 -0.2812,0.4465 -0.4301,0.6779 -0.1541,0.2314 -0.3029,0.4576 -0.4517,0.6726 l -7.2584,10.841 c -0.0885,0.1155 -0.1764,0.2203 -0.2648,0.3029 -0.0937,0.0885 -0.2092,0.1547 -0.358,0.2039 -0.1435,0.0498 -0.3199,0.0826 -0.5291,0.0996 -0.2097,0.0164 -0.4851,0.0217 -0.816,0.0217 -0.4189,0 -0.7605,-0.0106 -1.0142,-0.0387 -0.259,-0.0275 -0.4628,-0.0715 -0.6058,-0.1207 -0.1488,-0.0556 -0.2484,-0.1271 -0.2977,-0.2097 -0.055,-0.0879 -0.0826,-0.1928 -0.0826,-0.3088 v -19.775 c 0,-0.1044 0.0329,-0.1981 0.1044,-0.2807 0.072,-0.0832 0.1874,-0.1488 0.3527,-0.2039 0.1657,-0.0498 0.386,-0.0937 0.6561,-0.1213 0.2643,-0.0275 0.6064,-0.0386 1.0142,-0.0386 0.413,0 0.7604,0.0111 1.0247,0.0386 0.2701,0.0276 0.4851,0.0715 0.645,0.1213 0.16,0.0551 0.2754,0.1207 0.3363,0.2039 0.0662,0.0826 0.099,0.1763 0.099,0.2807 v 11.0835 c 0,0.3416 -0.005,0.7113 -0.0164,1.0968 -0.0111,0.3914 -0.0275,0.7663 -0.0498,1.1301 h 0.0334 c 0.1875,-0.3198 0.4189,-0.7112 0.7001,-1.1629 0.2807,-0.4523 0.573,-0.8929 0.8706,-1.3229 l 7.2696,-10.8411 c 0.0773,-0.1048 0.1541,-0.1986 0.2425,-0.2812 0.088,-0.0826 0.2039,-0.1488 0.3469,-0.2039 0.1435,-0.0492 0.3257,-0.0879 0.5402,-0.1101 0.215,-0.0217 0.4909,-0.0328 0.8267,-0.0328 0.4083,0 0.7387,0.0111 0.9924,0.0386 0.2531,0.0276 0.4517,0.0715 0.6064,0.1213 0.1488,0.0551 0.2531,0.1207 0.314,0.2039 0.0604,0.0826 0.0879,0.1816 0.0879,0.2976 z" />
    </g>
  </g>
</svg>
